<?xml version="1.0" encoding="UTF-8" standalone="no"?><!DOCTYPE svg PUBLIC "-//W3C//DTD SVG 1.1//EN" "http://www.w3.org/Graphics/SVG/1.1/DTD/svg11.dtd"><svg width="100%" height="100%" viewBox="0 0 1024 1024" version="1.1" xmlns="http://www.w3.org/2000/svg" xmlns:xlink="http://www.w3.org/1999/xlink" xml:space="preserve" xmlns:serif="http://www.serif.com/" style="fill-rule:evenodd;clip-rule:evenodd;stroke-linecap:round;stroke-linejoin:round;stroke-miterlimit:10;"><g id="Logo"><g id="logo"><path id="phone" d="M656.262,162.683c29.678,0 54.099,32.659 54.099,72.347l0,39.844l-18.033,16.485l0,-62.568c0,-6.614 -4.07,-12.057 -9.016,-12.057l-342.624,0c-4.946,0 -9.016,5.443 -9.016,12.057l0,596.964c0,6.615 4.07,12.058 9.016,12.058l342.624,0c4.946,-0.001 9.016,-5.444 9.016,-12.058l0,-362.73l18.033,-16.484l0,391.379c0,39.688 -24.421,72.346 -54.099,72.346l-288.524,0c-29.678,0 -54.099,-32.658 -54.099,-72.346l0,-602.89c0,-39.688 24.421,-72.347 54.099,-72.347l288.524,0Z" style="fill:#fff;fill-rule:nonzero;"/><g id="Pen"><path id="handle" d="M564.938,445.356c1.435,-1.946 3.035,-3.801 4.77,-5.512c0,0 280.783,-289.397 315.799,-250.956c21.581,23.691 -263.825,322.448 -263.825,322.448c-1.771,1.747 -3.544,3.217 -5.471,4.571" style="fill:none;stroke:#fff;stroke-width:18.08px;"/><path id="head" d="M493.364,496.236c29.244,-35.25 78.077,-60.305 104.609,-23.809c26.532,36.496 3.72,77.357 -28.407,109.04c-32.127,31.682 -126.702,43.923 -126.702,43.923c0,0 21.248,-93.894 50.5,-129.154Z" style="fill:none;stroke:#fff;stroke-width:18.08px;"/></g></g></g></svg>